M48
;Layer_Color=9474304
;FILE_FORMAT=2:4
INCH
;TYPE=PLATED
T1F00S00C0.0170
T2F00S00C0.0380
T3F00S00C0.0380
T4F00S00C0.0400
T5F00S00C0.0400
T6F00S00C0.0420
T7F00S00C0.1063
T8F00S00C0.1500
%
T01
X000752Y002882
Y003473
Y004064
X000750Y004655
Y005246
X000752Y005837
X001502
Y004064
Y003473
Y002882
X002252
Y003473
X003002
Y002882
X003752
Y003473
Y004064
X003750Y004655
Y005246
X003752Y005837
X004502
X004500Y005246
Y004655
X004502Y004064
Y003473
Y002882
X005252
Y003473
Y004064
X005250Y004655
Y005246
X005252Y005837
X006002
X006000Y005246
Y004655
X006002Y004064
Y003473
Y002882
X006000Y006428
X006002Y007019
X005252
X005250Y006428
X004500
X004502Y007019
X003752
X003750Y006428
X003000
X003002Y007019
X002252
X002250Y006428
X001500
X001502Y007019
X000752
X000750Y006428
T02
X007800Y001000
T03
X002800Y001000
X006800
T04
X008750Y004000
Y005000
Y006000
X010650Y005500
Y004500
Y003400
Y002400
T05
X010650Y006600
Y007600
T06
X003900Y008600
X004900
T07
X001000Y001000
X011000
Y009000
X001000
T08
X002450Y005000
M30
