G04*
G04 #@! TF.GenerationSoftware,Altium Limited,Altium Designer,18.1.6 (161)*
G04*
G04 Layer_Color=65535*
%FSAX24Y24*%
%MOIN*%
G70*
G01*
G75*
%ADD10C,0.0100*%
%ADD11C,0.0079*%
%ADD12C,0.0080*%
G36*
X011300Y002750D02*
X011800D01*
X011550Y003200D01*
X011300Y002750D01*
D02*
G37*
G36*
Y004800D02*
X011800D01*
X011550Y005250D01*
X011300Y004800D01*
D02*
G37*
G36*
Y006850D02*
X011800D01*
X011550Y007300D01*
X011300Y006850D01*
D02*
G37*
D10*
X011150Y007600D02*
X011550D01*
Y007300D02*
Y007600D01*
X011350Y007300D02*
X011750D01*
X011550Y005250D02*
Y006850D01*
X011350Y005250D02*
X011750D01*
X011550Y003200D02*
Y004800D01*
X011350Y003200D02*
X011750D01*
X011550Y002400D02*
Y002750D01*
X011200Y002400D02*
X011550D01*
X010900Y006100D02*
X011150Y006350D01*
X010400Y006100D02*
X010900D01*
X010150Y006350D02*
X010400Y006100D01*
X010150Y006350D02*
Y007850D01*
X010400Y008100D01*
X010900D01*
X011150Y007850D01*
Y006350D02*
Y007850D01*
X003400Y008350D02*
X003650Y008100D01*
X003400Y008350D02*
Y008850D01*
X003650Y009100D01*
X005150D01*
X005400Y008850D01*
Y008350D02*
Y008850D01*
X005150Y008100D02*
X005400Y008350D01*
X003650Y008100D02*
X005150D01*
X010900Y004000D02*
X011150Y004250D01*
X010400Y004000D02*
X010900D01*
X010150Y004250D02*
X010400Y004000D01*
X010150Y004250D02*
Y005750D01*
X010400Y006000D01*
X010900D01*
X011150Y005750D01*
Y004250D02*
Y005750D01*
X010900Y001900D02*
X011150Y002150D01*
X010400Y001900D02*
X010900D01*
X010150Y002150D02*
X010400Y001900D01*
X010150Y002150D02*
Y003650D01*
X010400Y003900D01*
X010900D01*
X011150Y003650D01*
Y002150D02*
Y003650D01*
X008200Y003500D02*
Y006500D01*
X008150Y003500D02*
Y006500D01*
X008250Y003500D02*
Y006500D01*
X009250Y003500D02*
Y006500D01*
X008200D02*
X009250D01*
X008200Y003500D02*
X009250D01*
X006050Y000500D02*
Y001500D01*
X003600Y000500D02*
Y001500D01*
Y000500D02*
X006050D01*
X003600Y001500D02*
X006050D01*
X003722Y009486D02*
X004150D01*
X003936Y009700D02*
Y009272D01*
X009864Y001572D02*
Y002000D01*
X009650Y001786D02*
X010078D01*
X010014Y008200D02*
Y008628D01*
X004914Y009300D02*
Y009728D01*
X002750Y008150D02*
X003017D01*
X003150Y008283D01*
X003017Y008417D01*
X002750D01*
Y008550D02*
Y008683D01*
Y008617D01*
X003150D01*
Y008550D01*
Y008683D01*
Y008883D02*
X002750D01*
X003150Y009150D01*
X002750D01*
D11*
X007993Y007895D02*
X008307D01*
X007993Y007305D02*
X008307D01*
D12*
X009550Y006400D02*
X009950D01*
Y006667D01*
X009550Y007066D02*
Y006800D01*
X009950D01*
Y007066D01*
X009750Y006800D02*
Y006933D01*
X009550Y007200D02*
X009950D01*
Y007400D01*
X009883Y007466D01*
X009617D01*
X009550Y007400D01*
Y007200D01*
X009617Y007600D02*
X009550Y007666D01*
Y007800D01*
X009617Y007866D01*
X009683D01*
X009750Y007800D01*
Y007733D01*
Y007800D01*
X009817Y007866D01*
X009883D01*
X009950Y007800D01*
Y007666D01*
X009883Y007600D01*
X009570Y004400D02*
X009950D01*
Y004653D01*
X009570Y005033D02*
Y004780D01*
X009950D01*
Y005033D01*
X009760Y004780D02*
Y004906D01*
X009570Y005160D02*
X009950D01*
Y005350D01*
X009887Y005413D01*
X009633D01*
X009570Y005350D01*
Y005160D01*
X009950Y005793D02*
Y005540D01*
X009697Y005793D01*
X009633D01*
X009570Y005730D01*
Y005603D01*
X009633Y005540D01*
X009570Y002300D02*
X009950D01*
Y002553D01*
X009570Y002933D02*
Y002680D01*
X009950D01*
Y002933D01*
X009760Y002680D02*
Y002806D01*
X009570Y003060D02*
X009950D01*
Y003250D01*
X009887Y003313D01*
X009633D01*
X009570Y003250D01*
Y003060D01*
X009950Y003440D02*
Y003566D01*
Y003503D01*
X009570D01*
X009633Y003440D01*
X004250Y000750D02*
X003880D01*
Y000935D01*
X003942Y000997D01*
X004065D01*
X004127Y000935D01*
Y000750D01*
Y000873D02*
X004250Y000997D01*
Y001120D02*
Y001243D01*
Y001182D01*
X003880D01*
X003942Y001120D01*
X008200Y003300D02*
Y003033D01*
X008333Y002900D01*
X008467Y003033D01*
Y003300D01*
X008600Y002900D02*
Y003300D01*
X008800D01*
X008866Y003233D01*
Y003100D01*
X008800Y003033D01*
X008600D01*
X008733D02*
X008866Y002900D01*
X009000D02*
X009133D01*
X009066D01*
Y003300D01*
X009000Y003233D01*
X007967Y008367D02*
X007900Y008300D01*
Y008167D01*
X007967Y008100D01*
X008233D01*
X008300Y008167D01*
Y008300D01*
X008233Y008367D01*
X008300Y008500D02*
Y008633D01*
Y008567D01*
X007900D01*
X007967Y008500D01*
M02*
