G04*
G04 #@! TF.GenerationSoftware,Altium Limited,Altium Designer,18.1.6 (161)*
G04*
G04 Layer_Physical_Order=2*
G04 Layer_Color=16711680*
%FSAX24Y24*%
%MOIN*%
G70*
G01*
G75*
%ADD18C,0.1500*%
%ADD22R,0.6000X0.5000*%
%ADD26C,0.1476*%
%ADD27C,0.0740*%
%ADD28C,0.0600*%
%ADD29C,0.0750*%
%ADD30C,0.0650*%
%ADD31R,0.0650X0.0650*%
%ADD32C,0.0300*%
%ADD33C,0.0500*%
G36*
X010812Y009777D02*
X010693Y009741D01*
X010554Y009667D01*
X010433Y009567D01*
X010333Y009446D01*
X010259Y009307D01*
X010213Y009156D01*
X010198Y009000D01*
X010213Y008844D01*
X010259Y008693D01*
X010333Y008554D01*
X010433Y008433D01*
X010554Y008333D01*
X010693Y008259D01*
X010844Y008213D01*
X011000Y008198D01*
X011156Y008213D01*
X011307Y008259D01*
X011446Y008333D01*
X011567Y008433D01*
X011667Y008554D01*
X011741Y008693D01*
X011777Y008812D01*
X011847Y008802D01*
Y001198D01*
X011777Y001188D01*
X011741Y001307D01*
X011667Y001446D01*
X011567Y001567D01*
X011446Y001667D01*
X011307Y001741D01*
X011156Y001787D01*
X011000Y001802D01*
X010844Y001787D01*
X010693Y001741D01*
X010554Y001667D01*
X010433Y001567D01*
X010333Y001446D01*
X010259Y001307D01*
X010213Y001156D01*
X010198Y001000D01*
X010213Y000844D01*
X010259Y000693D01*
X010333Y000554D01*
X010433Y000433D01*
X010554Y000333D01*
X010693Y000259D01*
X010812Y000223D01*
X010802Y000153D01*
X001198D01*
X001188Y000223D01*
X001307Y000259D01*
X001446Y000333D01*
X001567Y000433D01*
X001667Y000554D01*
X001741Y000693D01*
X001787Y000844D01*
X001802Y001000D01*
X001787Y001156D01*
X001741Y001307D01*
X001667Y001446D01*
X001567Y001567D01*
X001446Y001667D01*
X001307Y001741D01*
X001156Y001787D01*
X001000Y001802D01*
X000844Y001787D01*
X000693Y001741D01*
X000554Y001667D01*
X000433Y001567D01*
X000333Y001446D01*
X000259Y001307D01*
X000223Y001188D01*
X000153Y001198D01*
Y008802D01*
X000223Y008812D01*
X000259Y008693D01*
X000333Y008554D01*
X000433Y008433D01*
X000554Y008333D01*
X000693Y008259D01*
X000844Y008213D01*
X001000Y008198D01*
X001156Y008213D01*
X001307Y008259D01*
X001446Y008333D01*
X001567Y008433D01*
X001667Y008554D01*
X001741Y008693D01*
X001787Y008844D01*
X001802Y009000D01*
X001787Y009156D01*
X001741Y009307D01*
X001667Y009446D01*
X001567Y009567D01*
X001446Y009667D01*
X001307Y009741D01*
X001188Y009777D01*
X001198Y009847D01*
X010802D01*
X010812Y009777D01*
D02*
G37*
%LPC*%
G36*
X004900Y009039D02*
X004786Y009024D01*
X004681Y008980D01*
X004590Y008910D01*
X004520Y008819D01*
X004476Y008714D01*
X004461Y008600D01*
X004476Y008486D01*
X004520Y008381D01*
X004590Y008290D01*
X004681Y008220D01*
X004786Y008176D01*
X004900Y008161D01*
X005014Y008176D01*
X005119Y008220D01*
X005210Y008290D01*
X005280Y008381D01*
X005324Y008486D01*
X005339Y008600D01*
X005324Y008714D01*
X005280Y008819D01*
X005210Y008910D01*
X005119Y008980D01*
X005014Y009024D01*
X004900Y009039D01*
D02*
G37*
G36*
X003900D02*
X003786Y009024D01*
X003681Y008980D01*
X003590Y008910D01*
X003520Y008819D01*
X003476Y008714D01*
X003461Y008600D01*
X003476Y008486D01*
X003520Y008381D01*
X003590Y008290D01*
X003681Y008220D01*
X003786Y008176D01*
X003900Y008161D01*
X004014Y008176D01*
X004119Y008220D01*
X004210Y008290D01*
X004280Y008381D01*
X004324Y008486D01*
X004339Y008600D01*
X004324Y008714D01*
X004280Y008819D01*
X004210Y008910D01*
X004119Y008980D01*
X004014Y009024D01*
X003900Y009039D01*
D02*
G37*
G36*
X010650Y008034D02*
X010538Y008019D01*
X010433Y007976D01*
X010343Y007907D01*
X010274Y007817D01*
X010231Y007712D01*
X010216Y007600D01*
X010231Y007488D01*
X010274Y007383D01*
X010343Y007293D01*
X010433Y007224D01*
X010538Y007181D01*
X010650Y007166D01*
X010762Y007181D01*
X010867Y007224D01*
X010957Y007293D01*
X011026Y007383D01*
X011069Y007488D01*
X011084Y007600D01*
X011069Y007712D01*
X011026Y007817D01*
X010957Y007907D01*
X010867Y007976D01*
X010762Y008019D01*
X010650Y008034D01*
D02*
G37*
G36*
Y007034D02*
X010538Y007019D01*
X010433Y006976D01*
X010343Y006907D01*
X010274Y006817D01*
X010231Y006712D01*
X010216Y006600D01*
X010231Y006488D01*
X010274Y006383D01*
X010343Y006293D01*
X010433Y006224D01*
X010538Y006181D01*
X010650Y006166D01*
X010762Y006181D01*
X010867Y006224D01*
X010957Y006293D01*
X011026Y006383D01*
X011069Y006488D01*
X011084Y006600D01*
X011069Y006712D01*
X011026Y006817D01*
X010957Y006907D01*
X010867Y006976D01*
X010762Y007019D01*
X010650Y007034D01*
D02*
G37*
G36*
X008750Y006388D02*
X008649Y006375D01*
X008556Y006336D01*
X008475Y006275D01*
X008414Y006194D01*
X008375Y006101D01*
X008362Y006000D01*
X008375Y005899D01*
X008414Y005806D01*
X008475Y005725D01*
X008556Y005664D01*
X008649Y005625D01*
X008750Y005612D01*
X008851Y005625D01*
X008944Y005664D01*
X009025Y005725D01*
X009086Y005806D01*
X009125Y005899D01*
X009138Y006000D01*
X009125Y006101D01*
X009086Y006194D01*
X009025Y006275D01*
X008944Y006336D01*
X008851Y006375D01*
X008750Y006388D01*
D02*
G37*
G36*
X010650Y005934D02*
X010538Y005919D01*
X010433Y005876D01*
X010343Y005807D01*
X010274Y005717D01*
X010231Y005612D01*
X010216Y005500D01*
X010231Y005388D01*
X010274Y005283D01*
X010343Y005193D01*
X010433Y005124D01*
X010538Y005081D01*
X010650Y005066D01*
X010762Y005081D01*
X010867Y005124D01*
X010957Y005193D01*
X011026Y005283D01*
X011069Y005388D01*
X011084Y005500D01*
X011069Y005612D01*
X011026Y005717D01*
X010957Y005807D01*
X010867Y005876D01*
X010762Y005919D01*
X010650Y005934D01*
D02*
G37*
G36*
X008750Y005388D02*
X008649Y005375D01*
X008556Y005336D01*
X008475Y005275D01*
X008414Y005194D01*
X008375Y005100D01*
X008362Y005000D01*
X008375Y004900D01*
X008414Y004806D01*
X008475Y004725D01*
X008556Y004664D01*
X008649Y004625D01*
X008750Y004612D01*
X008851Y004625D01*
X008944Y004664D01*
X009025Y004725D01*
X009086Y004806D01*
X009125Y004900D01*
X009138Y005000D01*
X009125Y005100D01*
X009086Y005194D01*
X009025Y005275D01*
X008944Y005336D01*
X008851Y005375D01*
X008750Y005388D01*
D02*
G37*
G36*
X010650Y004934D02*
X010538Y004919D01*
X010433Y004876D01*
X010343Y004807D01*
X010274Y004717D01*
X010231Y004612D01*
X010216Y004500D01*
X010231Y004388D01*
X010274Y004283D01*
X010343Y004193D01*
X010433Y004124D01*
X010538Y004081D01*
X010650Y004066D01*
X010762Y004081D01*
X010867Y004124D01*
X010957Y004193D01*
X011026Y004283D01*
X011069Y004388D01*
X011084Y004500D01*
X011069Y004612D01*
X011026Y004717D01*
X010957Y004807D01*
X010867Y004876D01*
X010762Y004919D01*
X010650Y004934D01*
D02*
G37*
G36*
X009135Y004385D02*
X008365D01*
Y003615D01*
X009135D01*
Y004385D01*
D02*
G37*
G36*
X010650Y003834D02*
X010538Y003819D01*
X010433Y003776D01*
X010343Y003707D01*
X010274Y003617D01*
X010231Y003512D01*
X010216Y003400D01*
X010231Y003288D01*
X010274Y003183D01*
X010343Y003093D01*
X010433Y003024D01*
X010538Y002981D01*
X010650Y002966D01*
X010762Y002981D01*
X010867Y003024D01*
X010957Y003093D01*
X011026Y003183D01*
X011069Y003288D01*
X011084Y003400D01*
X011069Y003512D01*
X011026Y003617D01*
X010957Y003707D01*
X010867Y003776D01*
X010762Y003819D01*
X010650Y003834D01*
D02*
G37*
G36*
Y002834D02*
X010538Y002819D01*
X010433Y002776D01*
X010343Y002707D01*
X010274Y002617D01*
X010231Y002512D01*
X010216Y002400D01*
X010231Y002288D01*
X010274Y002183D01*
X010343Y002093D01*
X010433Y002024D01*
X010538Y001981D01*
X010650Y001966D01*
X010762Y001981D01*
X010867Y002024D01*
X010957Y002093D01*
X011026Y002183D01*
X011069Y002288D01*
X011084Y002400D01*
X011069Y002512D01*
X011026Y002617D01*
X010957Y002707D01*
X010867Y002776D01*
X010762Y002819D01*
X010650Y002834D01*
D02*
G37*
G36*
X007800Y001363D02*
X007706Y001351D01*
X007618Y001314D01*
X007543Y001257D01*
X007486Y001182D01*
X007449Y001094D01*
X007437Y001000D01*
X007449Y000906D01*
X007486Y000818D01*
X007543Y000743D01*
X007618Y000686D01*
X007706Y000649D01*
X007800Y000637D01*
X007894Y000649D01*
X007982Y000686D01*
X008057Y000743D01*
X008114Y000818D01*
X008151Y000906D01*
X008163Y001000D01*
X008151Y001094D01*
X008114Y001182D01*
X008057Y001257D01*
X007982Y001314D01*
X007894Y001351D01*
X007800Y001363D01*
D02*
G37*
G36*
X006800D02*
X006706Y001351D01*
X006618Y001314D01*
X006543Y001257D01*
X006486Y001182D01*
X006449Y001094D01*
X006437Y001000D01*
X006449Y000906D01*
X006486Y000818D01*
X006543Y000743D01*
X006618Y000686D01*
X006706Y000649D01*
X006800Y000637D01*
X006894Y000649D01*
X006982Y000686D01*
X007057Y000743D01*
X007114Y000818D01*
X007151Y000906D01*
X007163Y001000D01*
X007151Y001094D01*
X007114Y001182D01*
X007057Y001257D01*
X006982Y001314D01*
X006894Y001351D01*
X006800Y001363D01*
D02*
G37*
G36*
X002800D02*
X002706Y001351D01*
X002618Y001314D01*
X002543Y001257D01*
X002486Y001182D01*
X002449Y001094D01*
X002437Y001000D01*
X002449Y000906D01*
X002486Y000818D01*
X002543Y000743D01*
X002618Y000686D01*
X002706Y000649D01*
X002800Y000637D01*
X002894Y000649D01*
X002982Y000686D01*
X003057Y000743D01*
X003114Y000818D01*
X003151Y000906D01*
X003163Y001000D01*
X003151Y001094D01*
X003114Y001182D01*
X003057Y001257D01*
X002982Y001314D01*
X002894Y001351D01*
X002800Y001363D01*
D02*
G37*
%LPD*%
D18*
X002450Y005000D02*
D03*
D22*
X003450D02*
D03*
D26*
X011000Y001000D02*
D03*
Y009000D02*
D03*
X001000Y001000D02*
D03*
Y009000D02*
D03*
D27*
X010650Y007600D02*
D03*
Y006600D02*
D03*
Y005500D02*
D03*
Y004500D02*
D03*
Y003400D02*
D03*
Y002400D02*
D03*
D28*
X007800Y001000D02*
D03*
X002800D02*
D03*
X006800D02*
D03*
D29*
X004900Y008600D02*
D03*
X003900D02*
D03*
D30*
X008750Y005000D02*
D03*
Y006000D02*
D03*
D31*
Y004000D02*
D03*
D32*
X001502Y005837D02*
D03*
Y004064D02*
D03*
X003750Y005246D02*
D03*
X004500D02*
D03*
X005250D02*
D03*
X000750D02*
D03*
X000752Y002882D02*
D03*
Y003473D02*
D03*
Y004064D02*
D03*
X000750Y004655D02*
D03*
X000752Y005837D02*
D03*
X000750Y006428D02*
D03*
X000752Y007019D02*
D03*
X001502Y002882D02*
D03*
Y003473D02*
D03*
X001500Y006428D02*
D03*
X001502Y007019D02*
D03*
X002252Y002882D02*
D03*
Y003473D02*
D03*
X002250Y006428D02*
D03*
X002252Y007019D02*
D03*
X003002Y002882D02*
D03*
Y003473D02*
D03*
X003000Y006428D02*
D03*
X003002Y007019D02*
D03*
X003752Y002882D02*
D03*
Y003473D02*
D03*
Y004064D02*
D03*
X003750Y004655D02*
D03*
X003752Y005837D02*
D03*
X003750Y006428D02*
D03*
X003752Y007019D02*
D03*
X004502Y002882D02*
D03*
Y003473D02*
D03*
Y004064D02*
D03*
X004500Y004655D02*
D03*
X004502Y005837D02*
D03*
X004500Y006428D02*
D03*
X004502Y007019D02*
D03*
X005252Y002882D02*
D03*
Y003473D02*
D03*
Y004064D02*
D03*
X005250Y004655D02*
D03*
X005252Y005837D02*
D03*
X005250Y006428D02*
D03*
X005252Y007019D02*
D03*
X006002D02*
D03*
X006000Y006428D02*
D03*
X006002Y005837D02*
D03*
X006000Y005246D02*
D03*
Y004655D02*
D03*
X006002Y004064D02*
D03*
Y003473D02*
D03*
Y002882D02*
D03*
D33*
X005850Y004951D02*
X007738D01*
X003412Y001536D02*
Y003424D01*
X003461Y006112D02*
Y008000D01*
X003450Y005000D02*
Y006101D01*
Y005000D02*
X006000D01*
X003450Y006101D02*
X003461Y006112D01*
M02*
